<?xml version="1.0" encoding="utf-8"?>
<!-- Generator: Adobe Illustrator 19.2.1, SVG Export Plug-In . SVG Version: 6.00 Build 0)  -->
<svg version="1.1" id="Layer_1" xmlns="http://www.w3.org/2000/svg" xmlns:xlink="http://www.w3.org/1999/xlink" x="0px" y="0px"
	 viewBox="0 0 75 50" style="enable-background:new 0 0 75 50;" xml:space="preserve">
<style type="text/css">
	.st0{fill:#FFFFFF;}
	.st1{fill:#002282;}
	.st2{fill:#E2001F;}
</style>
<path class="st0" d="M2,0h71c1.1,0,2,0.9,2,2v46c0,1.1-0.9,2-2,2H2c-1.1,0-2-0.9-2-2V2C0,0.9,0.9,0,2,0z"/>
<path class="st1" d="M6,0h23v13L6,0z M6,50h23V37L6,50z M69,0H46v13L69,0z M69,50H46V37L69,50z M75,6v10H59L75,6z M75,42V32H59
	L75,42z M0,6v10h16L0,6z M0,42V32h16L0,42z"/>
<polygon class="st2" points="75,19 43,19 43,0 32,0 32,19 0,19 0,29 32,29 32,50 43,50 43,29 75,29 "/>
</svg>
