<?xml version="1.0" encoding="utf-8"?>
<!-- Generator: Adobe Illustrator 19.2.1, SVG Export Plug-In . SVG Version: 6.00 Build 0)  -->
<svg version="1.1" id="Layer_1" xmlns="http://www.w3.org/2000/svg" xmlns:xlink="http://www.w3.org/1999/xlink" x="0px" y="0px"
	 viewBox="0 0 98 67" style="enable-background:new 0 0 98 67;" xml:space="preserve">
<style type="text/css">
	.st0{fill:#5883ED;}
	.st1{fill:#FFB44F;}
	.st2{fill:#CE4747;}
	.st3{fill:#D6765F;}
</style>
<path class="st0" d="M4,0h90c2.2,0,4,1.8,4,4v59c0,2.2-1.8,4-4,4H4c-2.2,0-4-1.8-4-4V4C0,1.8,1.8,0,4,0z"/>
<ellipse class="st1" cx="61.2" cy="33.5" rx="15.3" ry="15.2"/>
<ellipse class="st2" cx="36.8" cy="33.5" rx="15.3" ry="15.2"/>
<path class="st3" d="M49,42.6c-1.9-2.5-3.1-5.7-3.1-9.1s1.1-6.6,3.1-9.1c1.9,2.5,3.1,5.7,3.1,9.1S50.9,40.1,49,42.6z"/>
</svg>
