<svg xmlns="http://www.w3.org/2000/svg" width="136" height="136" viewBox="0 0 136 136">
  <path fill="#239AFC" d="M127.060012,27.4562222 C132.642449,19.9837778 135.983778,12.2255556 136,6.68288889 C135.993111,4.888 135.633112,3.48533333 134.948224,2.44044444 C134.876224,2.31266667 134.678891,1.97822222 134.330669,1.64866667 C133.984447,1.30511111 133.673336,1.12155556 133.606003,1.08444444 C132.510005,0.352888889 131.100673,0 129.305342,0 C123.776461,0.00933333333 116.016027,3.34844444 108.54137,8.94 C102.499601,13.4611111 96.4573867,19.8282222 88.0931758,28.6451111 C86.6742888,30.1404444 85.1811798,31.7126667 83.6020708,33.3613333 L67.4009815,28.5057778 L67.4496481,28.4593333 C68.1229806,27.7788889 68.5063134,26.8431111 68.4969801,25.9235556 C68.5063134,24.9528889 68.1138695,24.0171111 67.4380926,23.3437778 L64.5123188,20.4133333 C63.8365419,19.7328889 62.9029876,19.3428889 61.9372111,19.3428889 C60.9618791,19.3428889 60.0516581,19.7191111 59.3712146,20.4064444 L54.9941094,24.786 L52.676557,24.094 C53.1758897,23.46 53.4521115,22.6682222 53.4427782,21.888 C53.4521115,20.9033333 53.0712231,19.9862222 52.3863352,19.3057778 L49.4465614,16.366 C48.7754511,15.6926667 47.8465635,15.3071111 46.8714537,15.3071111 C45.9007884,15.3071111 44.9927896,15.6857778 44.3194572,16.3706667 L40.3023515,20.3855556 L23.8294848,15.4511111 C23.4603742,15.342 23.0701525,15.284 22.6521531,15.284 C21.4819325,15.298 20.3974895,15.7322222 19.6057128,16.5171111 L13.8143873,22.3106667 C13.1570548,22.9677778 12.7879442,23.8571111 12.7950553,24.7 C12.7741664,25.9422222 13.4614988,27.0893333 14.562164,27.6791111 L49.2030061,47.0313333 C49.3725615,47.1264444 49.8625608,47.4888889 50.0436717,47.67 L59.9194361,57.5435556 C50.6821152,67.2753333 42.4525708,76.7008889 36.0392461,84.9 C35.4401358,85.6617778 34.8734699,86.4046667 34.3161373,87.1408889 L7.51706243,84.7073333 C7.38706261,84.6911111 7.24061836,84.6793333 7.05484084,84.6793333 C5.82639805,84.7048889 4.62595523,85.1904444 3.73440088,86.0517778 L1.03373786,88.75 C0.367294313,89.4026667 -0.00892740073,90.2848889 0.000405919994,91.1371111 C-0.0204829407,92.4375556 0.766627107,93.6402222 1.94862551,94.1673333 L20.8014889,103.121333 C20.9639332,103.202667 21.3865993,103.502222 21.5237102,103.639111 L23.0888192,105.192667 C22.5988198,106.572 22.3503757,107.767778 22.3363758,108.817556 C22.3317091,110.222222 22.7845974,111.425111 23.6508184,112.291333 L23.7181517,112.349556 L23.7365961,112.363333 C24.6259282,113.224889 25.7777044,113.663778 27.2034803,113.663778 C28.2299233,113.647556 29.414144,113.403778 30.7981421,112.916222 L32.3863622,114.502222 C32.5094731,114.632222 32.8043616,115.045556 32.8810282,115.210444 L41.8163494,134.021778 C42.3621265,135.222222 43.539236,136 44.821012,136 L44.8394565,136 C45.7265664,136 46.5741208,135.644667 47.2218977,134.994667 L49.9874495,132.219778 C50.807004,131.356 51.2901144,130.164889 51.3085588,128.908667 C51.3085588,128.755556 51.30167,128.636889 51.2970033,128.571778 L48.8565622,101.675111 C49.5903389,101.122444 50.333449,100.553556 51.0972258,99.9591111 C59.3081036,93.5362222 68.7358686,85.2995556 78.4489666,76.0762222 L88.3318422,85.9684444 C88.4920642,86.1215556 88.8658414,86.6117778 88.9751746,86.816 L108.29026,121.394222 C108.880037,122.511111 110.015591,123.200889 111.274256,123.200889 C112.172921,123.200889 113.027364,122.845556 113.682252,122.186222 L119.515133,116.357556 C120.272243,115.566 120.697132,114.490667 120.708687,113.315778 C120.708687,112.921111 120.653132,112.538 120.55091,112.178 L115.616472,95.7004444 L119.631133,91.6786667 C120.30691,91.0073333 120.690243,90.074 120.690243,89.1151111 C120.690243,88.1513333 120.316243,87.2457778 119.636022,86.556 L116.691582,83.614 C116.018249,82.9382222 115.086917,82.5528889 114.12803,82.5528889 C113.315364,82.5528889 112.521365,82.8246667 111.901144,83.3146667 L111.211367,81.0064444 L115.593139,76.6246667 C116.266471,75.9488889 116.649804,75.0153333 116.649804,74.054 C116.649804,73.0857778 116.275804,72.178 115.593139,71.4975556 L112.662476,68.5668889 C111.986699,67.8817778 111.0487,67.494 110.084924,67.494 C109.116703,67.494 108.178482,67.8864444 107.516705,68.5622222 L107.486483,68.59 L102.633156,52.3911111 C104.309821,50.7935556 105.900263,49.2724444 107.421372,47.8397778 C116.206916,39.5031111 122.550685,33.4842222 127.060012,27.4562222 Z"/>
</svg>
