<?xml version="1.0" encoding="utf-8"?>
<!-- Generator: Adobe Illustrator 19.2.1, SVG Export Plug-In . SVG Version: 6.00 Build 0)  -->
<svg version="1.1" id="Layer_1" xmlns="http://www.w3.org/2000/svg" xmlns:xlink="http://www.w3.org/1999/xlink" x="0px" y="0px"
	 viewBox="0 0 128 128" style="enable-background:new 0 0 128 128;" xml:space="preserve">
<style type="text/css">
	.st0{fill:#F7B239;}
	.st1{fill:#E09B2D;}
	.st2{fill:#4D4D4D;}
</style>
<circle class="st0" cx="63.9" cy="63.9" r="63.9"/>
<path class="st1" d="M30.3,97.4c-23-23-24.8-59.1-5.4-84.2c-2.1,1.7-4.2,3.5-6.2,5.4c-24.9,24.9-24.9,65.4,0,90.3s65.4,24.9,90.3,0
	c2-2,3.8-4,5.4-6.2C89.4,122.2,53.3,120.4,30.3,97.4z M71.7,92.3c-0.3,0-0.6-0.1-0.8-0.2c-4.6-1.8-9.4-1.8-14,0
	c-1.2,0.5-2.6-0.1-3.1-1.4c-0.5-1.2,0.1-2.6,1.4-3.1c5.7-2.2,11.7-2.2,17.4,0c1.2,0.5,1.8,1.8,1.4,3.1
	C73.6,91.7,72.7,92.3,71.7,92.3z"/>
<path class="st2" d="M91.8,84c-8.3-5.6-17.9-8.5-28-8.5s-19.7,2.9-28,8.5c-1.1,0.7-1.4,2.2-0.6,3.3c0.7,1.1,2.2,1.4,3.3,0.6
	c7.5-5,16.2-7.7,25.3-7.7s17.8,2.7,25.3,7.7c0.4,0.3,0.9,0.4,1.3,0.4c0.8,0,1.5-0.4,2-1C93.2,86.2,92.9,84.7,91.8,84z M44.4,50.7
	c0-4.8-3.9-8.8-8.8-8.8s-8.8,3.9-8.8,8.8s3.9,8.8,8.8,8.8S44.4,55.5,44.4,50.7z M92.2,41.9c-4.8,0-8.8,3.9-8.8,8.8s3.9,8.8,8.8,8.8
	c4.8,0,8.8-3.9,8.8-8.8S97,41.9,92.2,41.9z"/>
</svg>
