<?xml version="1.0" encoding="utf-8"?>
<!-- Generator: Adobe Illustrator 19.2.1, SVG Export Plug-In . SVG Version: 6.00 Build 0)  -->
<svg version="1.1" id="Layer_1" width="70px" height="150px" xmlns="http://www.w3.org/2000/svg" xmlns:xlink="http://www.w3.org/1999/xlink" x="0px" y="0px"
	 viewBox="0 0 45 150" style="enable-background:new 0 0 45 150;" xml:space="preserve">
<style type="text/css">
	.st0 {fill:#FFFFFF;}
</style>
<path class="st0" d="M22.6,143.3L4.9,125.6c-0.8-0.8-2-0.8-2.8,0l-0.7,0.7c-0.8,0.8-0.8,2,0,2.8l19.1,19.1l0.7,0.7
	c0.8,0.8,2,0.8,2.8,0L43.8,129c0.8-0.8,0.8-2,0-2.8l-0.7-0.7c-0.8-0.8-2-0.8-2.8,0L22.6,143.3z M22,94c1.7,0,3-1.3,3-3s-1.3-3-3-3
	s-3,1.3-3,3S20.3,94,22,94z M22,78c1.7,0,3-1.3,3-3s-1.3-3-3-3s-3,1.3-3,3S20.3,78,22,78z M22,62c1.7,0,3-1.3,3-3s-1.3-3-3-3
	s-3,1.3-3,3S20.3,62,22,62z M23,6.3L5.3,24.1c-0.8,0.8-2,0.8-2.8,0l-0.7-0.7c-0.8-0.8-0.8-2,0-2.8L20.9,1.4l0.7-0.7
	c0.8-0.8,2-0.8,2.8,0l19.8,19.8c0.8,0.8,0.8,2,0,2.8l-0.7,0.7c-0.8,0.8-2,0.8-2.8,0L23,6.3z"/>
</svg>
