<svg xmlns="http://www.w3.org/2000/svg" width="98" height="140" viewBox="0 0 98 140">
  <path fill="#239AFC" fill-rule="evenodd" d="M27.6923077,0 L70.2564103,0 C85.6410256,0 97.9487179,12.8205128 97.9487179,28.7179487 L97.9487179,83.5897436 C97.9487179,96.4102564 90.2564103,107.179487 78.974359,111.282051 L89.7435897,140 L82.0512821,140 L76.9230769,126.153846 L21.5384615,126.153846 L16.4102564,140 L8.20512821,140 L18.974359,111.282051 C7.69230769,107.179487 0,96.4102564 0,83.5897436 L0,28.7179487 C0,12.8205128 12.3076923,0 27.6923077,0 Z M73.8461538,118.974359 L71.7948718,112.820513 L26.1538462,112.820513 L24.1025641,118.974359 L73.8461538,118.974359 Z M34.8717949,6.15384615 L63.0769231,6.15384615 C64.6153846,6.15384615 65.6410256,7.17948718 65.6410256,8.71794872 L65.6410256,12.3076923 C65.6410256,13.8461538 64.6153846,14.8717949 63.0769231,14.8717949 L34.8717949,14.8717949 C33.8461538,14.8717949 32.3076923,13.8461538 32.3076923,12.3076923 L32.3076923,8.71794872 C32.3076923,7.17948718 33.8461538,6.15384615 34.8717949,6.15384615 Z M76.9230769,81.025641 C73.3333333,81.025641 70.7692308,84.1025641 70.7692308,87.6923077 C70.7692308,91.2820513 73.3333333,93.8461538 76.9230769,93.8461538 C80,93.8461538 83.0769231,91.2820513 83.0769231,87.6923077 C83.0769231,84.1025641 80,81.025641 76.9230769,81.025641 Z M21.025641,81.025641 C24.6153846,81.025641 27.1794872,84.1025641 27.1794872,87.6923077 C27.1794872,91.2820513 24.6153846,93.8461538 21.025641,93.8461538 C17.9487179,93.8461538 14.8717949,91.2820513 14.8717949,87.6923077 C14.8717949,84.1025641 17.9487179,81.025641 21.025641,81.025641 Z M21.5384615,23.5897436 L76.4102564,23.5897436 C82.5641026,23.5897436 87.1794872,28.7179487 87.1794872,34.8717949 L87.1794872,52.8205128 C87.1794872,58.974359 82.5641026,64.1025641 76.4102564,64.1025641 L21.5384615,64.1025641 C15.3846154,64.1025641 10.7692308,58.974359 10.7692308,52.8205128 L10.7692308,34.8717949 C10.7692308,28.7179487 15.3846154,23.5897436 21.5384615,23.5897436 Z"/>
</svg>
