<?xml version="1.0" encoding="utf-8"?>
<!-- Generator: Adobe Illustrator 19.2.1, SVG Export Plug-In . SVG Version: 6.00 Build 0)  -->
<svg version="1.1" id="Layer_1" xmlns="http://www.w3.org/2000/svg" xmlns:xlink="http://www.w3.org/1999/xlink" x="0px" y="0px"
	 viewBox="0 0 102 133" style="enable-background:new 0 0 102 133;" xml:space="preserve">
<style type="text/css">
	.st0{fill:#239AFC;}
</style>
<path class="st0" d="M92.5,11.2l-0.9-0.8c-3.5-3.3-12-3.8-16.8-3.8H27.6c-4.7,0-13.2,0.5-16.8,3.8l-0.9,0.8
	c-5.8,5.5-9.2,13.5-9.2,22v70.5c0,8.4,6.3,15.3,14,15.3h73c3.7,0,7.3-1.6,9.9-4.5s4.1-6.7,4.1-10.8V33.2
	C101.7,24.7,98.3,16.7,92.5,11.2z M13.2,12.9C16,10.3,22.6,10,26,10c0.4,0,0.7,0,1,0h47.8h0.6c2.9,0,10.6-0.1,13.8,2.9l0.9,0.8
	c5.1,4.8,8.1,11.9,8.1,19.4v70.5c0,6.5-4.7,11.7-10.5,11.7h-73c-5.8,0-10.5-5.3-10.5-11.7V33.2c0-7.5,2.9-14.5,8.1-19.4L13.2,12.9z
	 M20.7,85.4c-5.1,0-9.3,4.2-9.3,9.4s4.2,9.4,9.3,9.4S30,100,30,94.8S25.8,85.4,20.7,85.4z M20.7,88.9c3.2,0,5.8,2.6,5.8,5.8
	c0,3.2-2.6,5.8-5.8,5.8S15,98,15,94.8C15,91.5,17.5,88.9,20.7,88.9z M36.9,29.4h28.5c3,0,5.4-2.4,5.4-5.4v-4.6c0-3-2.4-5.4-5.4-5.4
	H36.9c-3,0-5.4,2.4-5.4,5.4V24C31.6,27,34,29.4,36.9,29.4z M67.3,24c0,1-0.8,1.9-1.9,1.9H36.9c-1,0-1.9-0.8-1.9-1.9v-4.6
	c0-1,0.8-1.9,1.9-1.9h28.5c1,0,1.9,0.8,1.9,1.9V24z M39.3,1.8c0-1,0.8-1.8,1.8-1.8h19.5c1,0,1.8,0.8,1.8,1.8s-0.8,1.8-1.8,1.8H41.1
	C40.1,3.5,39.3,2.7,39.3,1.8z M86.1,119l12,10.8c0.8,0.4,1,1.4,0.5,2.2c-0.3,0.6-0.9,0.9-1.5,0.9c-0.3,0-0.6-0.1-0.9-0.2l-0.2-0.1
	L80.9,119 M91,94.8c0-5.2-4.2-9.4-9.3-9.4s-9.3,4.2-9.3,9.4s4.2,9.4,9.3,9.4C86.8,104.2,91,99.9,91,94.8z M81.7,88.9
	c3.2,0,5.8,2.6,5.8,5.8c0,3.2-2.6,5.8-5.8,5.8s-5.8-2.6-5.8-5.8C75.9,91.5,78.5,88.9,81.7,88.9z M21.3,119L6.2,132.6
	c-0.3,0.2-0.6,0.2-0.9,0.2c-0.6,0-1.2-0.3-1.5-0.9c-0.5-0.8-0.2-1.8,0.5-2.3L16,119 M19.6,77.4h63.1c4.5,0,8.2-3.7,8.2-8.3V40.9
	c0-4.6-3.7-8.3-8.2-8.3H19.6c-4.5,0-8.2,3.7-8.2,8.3v28.2C11.4,73.7,15.1,77.4,19.6,77.4z M15,69.1V40.9c0-2.6,2.1-4.8,4.7-4.8h63.1
	c2.6,0,4.7,2.1,4.7,4.8v28.2c0,2.6-2.1,4.8-4.7,4.8H19.6C17.1,73.8,15,71.7,15,69.1z"/>
</svg>
