<svg xmlns="http://www.w3.org/2000/svg" width="102" height="102" viewBox="0 0 102 102">
  <g fill="none">
    <g fill="#B3C4EA">
      <path d="M54.6586387 41.407788L51.0068063 38.6985602 29.1588351 16.6094895C30.5750654 15.2521597 30.339267 12.9548429 28.6902487 11.9537304L15.4995117 1.74951172C11.3764751-.665606082 11.3764751-.665606082 5.00569372 5.06086387-.540606082 10.3177709-.540606082 10.3177709 1.87451172 14.4995117L11.9572644 28.6278141C12.8994764 30.1588351 15.1376963 30.6302356 16.5517016 29.1577225L38.2844895 50.8909686 41.2884162 54.7782068C42.4075262 56.1918194 44.4688482 56.3096204 45.7059555 55.0136126L54.8944372 45.8251309C56.1900524 44.5886126 56.0135471 42.5268979 54.6586387 41.407788zM75.6861257 58.0766361L63.8471204 48.8881545C62.6691099 48.0044503 61.0200916 48.1224476 59.9598822 49.1826571L54.4821335 54.6604058 49.0043848 60.0794503C47.9437827 61.0805628 47.8263743 62.788678 48.7096859 63.9666885L57.9570681 75.8647906C59.076178 77.2193063 61.1378927 77.3962042 62.3746073 76.1001963L69.0183901 69.1077225 75.9217277 62.4941754C77.2177356 61.2572644 77.0408377 59.1957461 75.6861257 58.0766361z"/>
    </g>
    <g fill="#97A9D2" transform="translate(5.125)">
      <path d="M49.8246509 45.3421167L45.2416894 49.8858964.0605160082 5.02692114C4.125 1 5.63706574-.888489126 9.75 1.5L25.6734247 13.8327622C27.3183243 14.8228367 27.5535337 17.0948236 26.2020095 18.4344047L27.1458362 19.4151361 45.9467302 38.293734 49.5894414 40.9730903C50.9409656 42.0800553 51.11703 44.1190378 49.8246509 45.3421167zM70.799421 61.827177L63.913326 68.3678043 49.413377 54.0797812 54.8774438 48.6624292C55.9350051 47.6139094 57.5799046 47.4974073 58.7549728 48.3711737L70.5644074 57.4583448C71.9157357 58.5651156 72.0921918 60.603904 70.799421 61.827177z"/>
    </g>
    <path fill="#FD003A" d="M96.9486451,76.5698017 C86.3668394,65.9560612 91.5830542,70.5218197 72.8483953,55.90625 L64.4060414,64.4320796 L55.90625,72.9575225 C70.766381,91.9809041 66.360074,86.8931679 76.0743416,96.578948 C79.0813315,99.6526235 83.128943,101.21875 87.0609084,101.21875 C89.9520595,101.21875 92.7853875,100.348594 95.1563241,98.6668589 C95.7923774,98.2026854 96.4282379,97.6810943 96.9488378,97.0427348 C99.377212,94.6650296 100.880803,91.4751657 101.169726,88.0531184 C101.516664,83.7614948 100.013072,79.5858663 96.9486451,76.5698017 Z"/>
    <path fill="#E50027" d="M101.95006,88.2639314 C101.655547,91.7084198 100.124081,94.9190077 97.6503688,97.3125 L64.5,64.4879903 L73.0999722,55.90625 C92.1844062,70.6176658 86.8710013,66.0219659 97.6501724,76.7053093 C100.771813,79.7409581 102.303476,83.9439696 101.95006,88.2639314 Z"/>
    <path fill="#EDF3FF" d="M100.004908,13.6632874 C99.5947512,12.8431739 98.7742422,12.1984502 97.8369362,12.0814586 C96.8992396,11.9054828 95.9619336,12.1984502 95.3170108,12.9017674 L87.7586019,20.4601319 C86.6453191,21.5148146 84.7115273,21.5148146 83.5982445,20.4601319 L83.5400413,20.4601319 C82.4267585,19.2882621 82.4267585,17.471864 83.5400413,16.299799 L91.1572394,8.68264569 C91.8603654,8.03811734 92.1531392,7.04222337 91.9775531,6.10453227 C91.8015763,5.16723179 91.2158333,4.40551646 90.3367305,3.99516675 C82.4849617,0.245183588 73.0515502,1.88580122 67.0165809,8.03811734 C61.3327839,13.6628968 59.5163751,21.9833672 62.1530976,29.3661465 L29.3860598,62.2152178 C22.0036277,59.6371043 13.6247098,61.3949089 7.94091285,67.0198837 C1.84734969,73.1721998 0.26512093,82.6055559 4.01532145,90.3986849 C4.89403361,92.215083 7.29657601,92.5666439 8.70282797,91.1604002 L16.2612369,83.6020358 C17.4331135,82.4887595 19.2495223,82.4887595 20.4215943,83.6602386 C21.5934709,84.7735149 21.65226,86.5317101 20.4215943,87.7617827 L12.8631853,95.3205378 C11.3983395,96.7267815 11.8081057,99.1289191 13.6249051,100.008017 C16.4370184,101.355472 19.484093,102 22.4719877,102 C27.8042217,102 33.0774712,99.9494233 37.0622424,96.0236597 C42.6284611,90.3398961 44.4446745,81.9610275 41.8083427,74.6368416 L74.633779,41.8471452 C82.0166017,44.4836568 90.3369258,42.6672587 95.9619336,36.9836905 C102.114286,30.8897725 103.754718,21.5150099 100.004908,13.6632874 Z"/>
    <path fill="#B3C4EA" d="M95.9740855,37.0738816 C90.3602513,42.7493875 82.0569381,44.5632713 74.6890366,41.9306043 L41.9297481,74.674913 C44.5609466,81.9889606 42.7482089,90.3562312 37.19324,96.0321272 C33.2167172,99.9522617 27.9541253,102 22.6326682,102 C19.6508122,102 16.609896,101.356364 13.8032713,100.010774 C11.9901438,99.1328933 11.5812058,96.7340807 13.043091,95.3297836 L20.5862238,87.7814914 C21.8144023,86.5529264 21.755732,84.7973599 20.5862238,83.6856247 L83.6355793,20.573195 C84.746612,21.6264179 86.6764954,21.6264179 87.7875282,20.573195 L95.3306611,13.0252929 C95.9740855,12.3227542 96.909692,12.0303874 97.8454935,12.2061195 C98.7809051,12.3229493 99.5997557,12.9667805 100.009084,13.7857588 C103.75112,21.6264179 102.114003,30.9882038 95.9740855,37.0738816 Z"/>
    <path fill="#E50027" d="M89.1151123,89.5948452 C88.0407033,90.4304987 86.4887792,90.6692569 85.1758117,89.355888 L73.2379342,77.4179799 C71.9245687,76.105009 72.1631273,74.5530809 72.9989777,73.4786692 C74.0138963,72.2249899 75.9237577,71.7478715 77.4159924,73.24011 L89.3538698,85.1780181 C90.8459056,86.6700577 90.3685894,88.579725 89.1151123,89.5948452 Z"/>
    <path fill="#C1001F" d="M89.1215071,89.5 L73.09375,73.4722693 C74.103103,72.2254701 76.0024911,71.7509702 77.4865427,73.2350193 L89.3589554,85.1074124 C90.8428091,86.5912637 90.3681105,88.4904508 89.1215071,89.5 Z"/>
  </g>
</svg>
