<?xml version="1.0" encoding="utf-8"?>
<!-- Generator: Adobe Illustrator 19.2.1, SVG Export Plug-In . SVG Version: 6.00 Build 0)  -->
<svg version="1.1" id="Layer_1" xmlns="http://www.w3.org/2000/svg" xmlns:xlink="http://www.w3.org/1999/xlink" x="0px" y="0px"
	 viewBox="0 0 98 67" style="enable-background:new 0 0 98 67;" xml:space="preserve">
<style type="text/css">
	.st0{fill:#EFEFEF;}
	.st1{fill:#FFB44F;}
	.st2{fill:#4287CB;}
</style>
<path class="st0" d="M4,0h90c2.2,0,4,1.8,4,4v59c0,2.2-1.8,4-4,4H4c-2.2,0-4-1.8-4-4V4C0,1.8,1.8,0,4,0z"/>
<path class="st1" d="M0,48.7V63c0,2.2,1.8,4,4,4h90c2.2,0,4-1.8,4-4V48.7H0z"/>
<path class="st2" d="M4,0C1.8,0,0,1.8,0,4v14.3h98V4c0-2.2-1.8-4-4-4H4z"/>
</svg>
